<?xml version="1.0" encoding="UTF-8" standalone="no"?>
<!-- Created with Inkscape (http://www.inkscape.org/) -->

<svg
   width="55.096771mm"
   height="12.596668mm"
   viewBox="0 0 55.096771 12.596668"
   version="1.1"
   id="svg5"
   inkscape:version="1.1 (c68e22c387, 2021-05-23)"
   sodipodi:docname="logo.svg"
   xmlns:inkscape="http://www.inkscape.org/namespaces/inkscape"
   xmlns:sodipodi="http://sodipodi.sourceforge.net/DTD/sodipodi-0.dtd"
   xmlns="http://www.w3.org/2000/svg"
   xmlns:svg="http://www.w3.org/2000/svg">
  <sodipodi:namedview
     id="namedview7"
     pagecolor="#ffffff"
     bordercolor="#666666"
     borderopacity="1.0"
     inkscape:pageshadow="2"
     inkscape:pageopacity="0.0"
     inkscape:pagecheckerboard="0"
     inkscape:document-units="mm"
     showgrid="false"
     inkscape:zoom="5.4876543"
     inkscape:cx="83.551181"
     inkscape:cy="30.796401"
     inkscape:window-width="1920"
     inkscape:window-height="974"
     inkscape:window-x="-11"
     inkscape:window-y="-11"
     inkscape:window-maximized="1"
     inkscape:current-layer="layer1" />
  <defs
     id="defs2" />
  <g
     inkscape:label="Layer 1"
     inkscape:groupmode="layer"
     id="layer1"
     transform="translate(-32.256577,-33.816108)">
    <g
       id="g2661"
       transform="matrix(0.28992793,0,0,0.28992793,40.941795,27.946556)"
       style="stroke-width:3.44913">
      <path
         style="fill:none;stroke:#eb5160;stroke-width:0.912582px;stroke-linecap:butt;stroke-linejoin:miter;stroke-opacity:1"
         d="m 76.367531,30.547013 7.84131,-2.250114 7.773122,5.250267 1.227336,8.182234 -7.295827,9.273201 -8.52316,1.022779 -6.000308,-1.227333 -2.250115,-4.500232 0.613669,-6.20486 z"
         id="path869" />
      <path
         style="fill:none;stroke:#eb5160;stroke-width:0.912582px;stroke-linecap:butt;stroke-linejoin:miter;stroke-opacity:1"
         d="m 90.481887,32.456202 3.136524,-0.954596 3.272893,-4.227489 -0.477295,-3.88656 -4.091119,-2.659227 -4.500228,0.886409 -2.727412,4.909341 v 2.250115"
         id="path871" />
      <path
         style="fill:none;stroke:#eb5160;stroke-width:0.912582px;stroke-linecap:butt;stroke-linejoin:miter;stroke-opacity:1"
         d="m 76.367531,30.547013 3.86104,2.142273 0.482143,6.026785 7.666071,-0.578572 4.832512,3.591901"
         id="path873" />
      <path
         style="fill:none;stroke:#eb5160;stroke-width:0.912582px;stroke-linecap:butt;stroke-linejoin:miter;stroke-opacity:1"
         d="m 91.981961,33.547166 -3.605178,4.590333"
         id="path875" />
      <path
         style="fill:none;stroke:#eb5160;stroke-width:0.912582px;stroke-linecap:butt;stroke-linejoin:miter;stroke-opacity:1"
         d="m 80.228571,32.689286 3.98027,-4.392387"
         id="path877" />
      <path
         style="fill:none;stroke:#eb5160;stroke-width:0.912582px;stroke-linecap:butt;stroke-linejoin:miter;stroke-opacity:1"
         d="m 73.141072,35.148213 3.423213,1.783929 0.578573,6.364287 7.473211,-0.819644 4.821431,4.05"
         id="path879" />
      <path
         style="fill:none;stroke:#eb5160;stroke-width:0.912582px;stroke-linecap:butt;stroke-linejoin:miter;stroke-opacity:1"
         d="m 76.564285,36.932142 3.664286,-4.242856"
         id="path881" />
      <path
         style="fill:none;stroke:#eb5160;stroke-width:0.912582px;stroke-linecap:butt;stroke-linejoin:miter;stroke-opacity:1"
         d="m 88.376783,38.137499 -3.760716,4.339286"
         id="path883" />
      <path
         style="fill:none;stroke:#eb5160;stroke-width:0.912582px;stroke-linecap:butt;stroke-linejoin:miter;stroke-opacity:1"
         d="m 76.564285,36.932142 -3.519643,4.676785 V 47.82857 L 80.807141,47.25 84.616067,42.476785"
         id="path885" />
      <path
         style="fill:none;stroke:#eb5160;stroke-width:0.912582px;stroke-linecap:butt;stroke-linejoin:miter;stroke-opacity:1"
         d="m 69.753556,40.092955 3.291086,1.515972"
         id="path887" />
      <path
         style="fill:none;stroke:#eb5160;stroke-width:0.912582px;stroke-linecap:butt;stroke-linejoin:miter;stroke-opacity:1"
         d="m 80.807141,47.25 5.106331,3.752601"
         id="path889" />
      <path
         style="fill:none;stroke:#eb5160;stroke-width:0.912582px;stroke-linecap:butt;stroke-linejoin:miter;stroke-opacity:1"
         d="m 69.139889,46.297815 3.904753,-4.688888"
         id="path891" />
      <path
         style="fill:none;stroke:#eb5160;stroke-width:0.912582px;stroke-linecap:butt;stroke-linejoin:miter;stroke-opacity:1"
         d="m 80.807141,47.25 -3.416829,4.77538"
         id="path893" />
      <path
         style="fill:none;stroke:#eb5160;stroke-width:0.912582px;stroke-linecap:butt;stroke-linejoin:miter;stroke-opacity:1"
         d="m 82.783928,28.542858 -5.351786,-0.482145 -3.664286,2.025002 -5.014285,4.724998 h 4.580356"
         id="path895" />
      <path
         style="fill:none;stroke:#eb5160;stroke-width:0.912582px;stroke-linecap:butt;stroke-linejoin:miter;stroke-opacity:1"
         d="m 92.137499,34.714285 2.507144,1.78393 3.182141,5.7375 0.192857,3.953571 -1.446427,7.762499 -5.785715,-9.208929"
         id="path897" />
      <path
         style="fill:none;stroke:#eb5160;stroke-width:0.912582px;stroke-linecap:butt;stroke-linejoin:miter;stroke-opacity:1"
         d="m 69.766071,41.367858 -3.326786,0.289284 -6.026785,3.712501 -4.098214,5.014286 13.644642,-2.410714"
         id="path899" />
      <path
         style="fill:none;stroke:#eb5160;stroke-width:0.912582px;stroke-linecap:butt;stroke-linejoin:miter;stroke-opacity:1"
         d="m 84.905357,51.251786 -0.289288,3.519641 -3.326783,3.712501 -5.641073,4.098213 2.748214,-10.848213"
         id="path934" />
      <path
         style="fill:none;stroke:#eb5160;stroke-width:0.912582px;stroke-linecap:butt;stroke-linejoin:miter;stroke-opacity:1"
         d="m 70.826785,49.949999 c -0.504089,3.062399 -2.889155,6.275275 -6.605357,9.594643 9.224407,-2.3723 6.605357,-9.594643 10.414286,-8.051786"
         id="path936"
         sodipodi:nodetypes="ccc" />
    </g>
    <path
       d="m 32.356577,38.249864 h 0.699355 q 0.422024,0 0.648711,0.101286 0.226688,0.09887 0.356912,0.306269 0.132636,0.207394 0.132636,0.460609 0,0.236334 -0.115755,0.431671 -0.115755,0.192925 -0.340031,0.313503 0.27733,0.09405 0.426848,0.221865 0.149517,0.125401 0.23151,0.306269 0.0844,0.178456 0.0844,0.388262 0,0.426847 -0.313504,0.72347 -0.311092,0.294211 -0.836814,0.294211 h -0.974273 z m 0.347266,0.347265 v 1.135849 h 0.202572 q 0.368969,0 0.542602,-0.06752 0.173633,-0.06994 0.274919,-0.217041 0.101286,-0.149517 0.101286,-0.330385 0,-0.243568 -0.171222,-0.381028 -0.168809,-0.139871 -0.540191,-0.139871 z m 0,1.492761 v 1.360124 h 0.438905 q 0.388262,0 0.56913,-0.07476 0.180868,-0.07717 0.289388,-0.238745 0.110932,-0.161575 0.110932,-0.349677 0,-0.236334 -0.15434,-0.412378 -0.15434,-0.176045 -0.424436,-0.241157 -0.180868,-0.04341 -0.629419,-0.04341 z"
       style="font-size:4.93889px;line-height:1.25;font-family:'Century Gothic';-inkscape-font-specification:'Century Gothic, Normal';fill:#33a1fd;stroke:#33a1fd;stroke-width:0.2"
       id="path864" />
    <path
       d="m 35.202227,38.249864 h 0.706589 q 0.590834,0 0.80064,0.04823 0.315916,0.07235 0.513664,0.311092 0.197749,0.236334 0.197749,0.5836 0,0.289388 -0.13746,0.50884 -0.135047,0.219453 -0.388262,0.332797 -0.253215,0.110932 -0.699355,0.113343 l 1.27572,1.649512 h -0.438906 l -1.273307,-1.649512 h -0.202572 v 1.649512 h -0.3545 z m 0.3545,0.347265 v 1.205784 l 0.610127,0.0048 q 0.3545,0 0.52331,-0.06752 0.171221,-0.06752 0.265272,-0.214629 0.09646,-0.149517 0.09646,-0.332796 0,-0.178456 -0.09646,-0.32315 -0.09646,-0.147106 -0.253214,-0.209807 -0.156752,-0.0627 -0.520899,-0.0627 z"
       style="font-size:4.93889px;line-height:1.25;font-family:'Century Gothic';-inkscape-font-specification:'Century Gothic, Normal';fill:#33a1fd;stroke:#33a1fd;stroke-width:0.2"
       id="path866" />
    <path
       d="M 39.629864,38.249864 41.2842,41.797279 H 40.903172 L 40.3461,40.630081 h -1.528934 l -0.55466,1.167198 h -0.395497 l 1.676039,-3.547415 z m -0.04341,0.752409 -0.610126,1.285365 h 1.213018 z"
       style="font-size:4.93889px;line-height:1.25;font-family:'Century Gothic';-inkscape-font-specification:'Century Gothic, Normal';fill:#33a1fd;stroke:#33a1fd;stroke-width:0.2"
       id="path868" />
    <path
       d="m 41.836449,41.797279 v -3.547415 h 0.07717 l 2.358513,2.715425 v -2.715425 h 0.349677 v 3.547415 h -0.07958 l -2.33922,-2.681663 v 2.681663 z"
       style="font-size:4.93889px;line-height:1.25;font-family:'Century Gothic';-inkscape-font-specification:'Century Gothic, Normal';fill:#33a1fd;stroke:#33a1fd;stroke-width:0.2"
       id="path870" />
    <path
       d="m 45.487562,41.797279 v -3.547415 h 0.735528 q 0.795817,0 1.15514,0.127813 0.516076,0.180867 0.805464,0.627007 0.2918,0.44614 0.2918,1.063502 0,0.532956 -0.231511,0.938099 -0.229099,0.405144 -0.598069,0.598069 -0.366558,0.192925 -1.029739,0.192925 z m 0.340031,-0.335208 h 0.409966 q 0.735528,0 1.020093,-0.09164 0.40032,-0.130225 0.629419,-0.467844 0.229099,-0.340031 0.229099,-0.829579 0,-0.513664 -0.248391,-0.877811 -0.248392,-0.364147 -0.69212,-0.499194 -0.332797,-0.101286 -1.097263,-0.101286 h -0.250803 z"
       style="font-size:4.93889px;line-height:1.25;font-family:'Century Gothic';-inkscape-font-specification:'Century Gothic, Normal';fill:#33a1fd;stroke:#33a1fd;stroke-width:0.2"
       id="path872" />
    <path
       d="m 50.853298,38.160636 q 0.805464,0 1.348067,0.537779 0.542602,0.53778 0.542602,1.323951 0,0.778936 -0.542602,1.321539 -0.540191,0.542602 -1.319128,0.542602 -0.788582,0 -1.331185,-0.540191 -0.542603,-0.540191 -0.542603,-1.307069 0,-0.511253 0.24598,-0.947746 0.248392,-0.436494 0.675239,-0.682474 0.426848,-0.248391 0.92363,-0.248391 z m 0.01688,0.347265 q -0.393085,0 -0.745174,0.204984 -0.352089,0.204983 -0.549837,0.552249 -0.197749,0.347265 -0.197749,0.774113 0,0.63183 0.436494,1.068324 0.438905,0.434082 1.056266,0.434082 0.412378,0 0.762056,-0.20016 0.352089,-0.20016 0.547425,-0.547426 0.197749,-0.347265 0.197749,-0.771701 0,-0.422025 -0.197749,-0.762056 -0.195336,-0.342442 -0.552248,-0.547425 -0.356912,-0.204984 -0.757233,-0.204984 z"
       style="font-size:4.93889px;line-height:1.25;font-family:'Century Gothic';-inkscape-font-specification:'Century Gothic, Normal';fill:#33a1fd;stroke:#33a1fd;stroke-width:0.2"
       id="path874" />
    <path
       d="m 53.457792,41.797279 v -3.547415 h 0.07717 l 2.358512,2.715425 v -2.715425 h 0.349678 v 3.547415 h -0.07958 l -2.33922,-2.681663 v 2.681663 z"
       style="font-size:4.93889px;line-height:1.25;font-family:'Century Gothic';-inkscape-font-specification:'Century Gothic, Normal';fill:#33a1fd;stroke:#eb5160;stroke-width:0.2;stroke-opacity:1"
       id="path876" />
    <g
       aria-label="WONG"
       id="text4271-4"
       style="font-size:4.93889px;line-height:1.25;font-family:'Book Antiqua';-inkscape-font-specification:'Book Antiqua, Normal';stroke:#33a1fd;stroke-width:0.2">
      <path
         d="m 70.734112,38.249864 h 0.364147 l 0.721058,2.556261 1.017682,-2.556261 h 0.07235 l 1.005623,2.556261 0.735529,-2.556261 h 0.361735 l -1.017682,3.547415 h -0.06752 l -1.051443,-2.684074 -1.073148,2.684074 h -0.06752 z"
         style="font-family:'Century Gothic';-inkscape-font-specification:'Century Gothic, Normal';fill:#33a1fd"
         id="path904" />
      <path
         d="m 77.365922,38.160636 q 0.805464,0 1.348066,0.537779 0.542603,0.53778 0.542603,1.323951 0,0.778936 -0.542603,1.321539 -0.540191,0.542602 -1.319127,0.542602 -0.788582,0 -1.331185,-0.540191 -0.542603,-0.540191 -0.542603,-1.307069 0,-0.511253 0.24598,-0.947746 0.248392,-0.436494 0.675239,-0.682474 0.426847,-0.248391 0.92363,-0.248391 z m 0.01688,0.347265 q -0.393085,0 -0.745174,0.204984 -0.352089,0.204983 -0.549837,0.552249 -0.197749,0.347265 -0.197749,0.774113 0,0.63183 0.436494,1.068324 0.438905,0.434082 1.056266,0.434082 0.412378,0 0.762055,-0.20016 0.352089,-0.20016 0.547426,-0.547426 0.197749,-0.347265 0.197749,-0.771701 0,-0.422025 -0.197749,-0.762056 -0.195337,-0.342442 -0.552249,-0.547425 -0.356912,-0.204984 -0.757232,-0.204984 z"
         style="font-family:'Century Gothic';-inkscape-font-specification:'Century Gothic, Normal';fill:#33a1fd"
         id="path906" />
      <path
         d="m 79.970415,41.797279 v -3.547415 h 0.07717 l 2.358513,2.715425 v -2.715425 h 0.349678 v 3.547415 h -0.07958 l -2.339221,-2.681663 v 2.681663 z"
         style="font-family:'Century Gothic';-inkscape-font-specification:'Century Gothic, Normal';fill:#33a1fd"
         id="path908" />
      <path
         d="m 87.043542,38.845521 -0.274919,0.260449 q -0.296622,-0.291799 -0.651123,-0.441317 -0.352089,-0.151928 -0.687296,-0.151928 -0.417202,0 -0.795818,0.204983 -0.376204,0.204983 -0.583599,0.557072 -0.207395,0.349677 -0.207395,0.740351 0,0.40032 0.21463,0.762055 0.214629,0.359324 0.593245,0.566719 0.378616,0.204983 0.829579,0.204983 0.547426,0 0.926042,-0.308681 0.378616,-0.30868 0.448552,-0.80064 h -1.131025 v -0.342443 h 1.528934 q -0.0048,0.822345 -0.489549,1.30707 -0.482313,0.482313 -1.2926,0.482313 -0.983919,0 -1.557872,-0.670415 -0.441317,-0.516076 -0.441317,-1.193726 0,-0.504018 0.253214,-0.9381 0.253215,-0.434082 0.694532,-0.67765 0.441317,-0.24598 0.998389,-0.24598 0.450963,0 0.848871,0.163986 0.397909,0.161575 0.776525,0.520899 z"
         style="font-family:'Century Gothic';-inkscape-font-specification:'Century Gothic, Normal';fill:#33a1fd"
         id="path910" />
    </g>
  </g>
</svg>
